<svg width="118" height="118" viewBox="0 0 118 118" fill="none" xmlns="http://www.w3.org/2000/svg">
<path d="M59 116.5C90.7563 116.5 116.5 90.7563 116.5 59C116.5 27.2436 90.7563 1.49997 59 1.49997C27.2437 1.49997 1.50012 27.2436 1.50012 59C1.50012 90.7563 27.2437 116.5 59 116.5Z" fill="white"/>
<g filter="url(#filter0_d_14_3)">
<path d="M59.5145 62.9496C65.9658 62.9496 72.2826 62.5665 77.4602 61.8C81.5666 61.1788 82.8528 58.1483 81.4579 53.8232L73.7458 29.5215C72.3475 25.0713 68.7695 23 63.8317 23H55.1684C50.2305 23 46.6521 25.0713 45.2543 29.5215L37.5419 53.8232C36.1469 58.1483 37.4332 61.1788 41.5397 61.8C46.7175 62.5665 53.0393 62.9496 59.5145 62.9496ZM56.8246 60.9006V93.2057H62.186V60.9006H56.8246ZM46.3259 95.2487H72.6741C73.9329 95.2487 74.7905 94.3465 74.7905 93.0341C74.7905 90.6046 72.8102 88.9172 69.8282 88.9172H49.1719C46.1898 88.9172 44.2386 90.6046 44.2386 93.0341C44.2386 94.3465 45.0671 95.2487 46.3259 95.2487Z" fill="black"/>
</g>
<defs>
<filter id="filter0_d_14_3" x="33" y="23" width="52.9998" height="80.2487" filterUnits="userSpaceOnUse" color-interpolation-filters="sRGB">
<feFlood flood-opacity="0" result="BackgroundImageFix"/>
<feColorMatrix in="SourceAlpha" type="matrix" values="0 0 0 0 0 0 0 0 0 0 0 0 0 0 0 0 0 0 127 0" result="hardAlpha"/>
<feOffset dy="4"/>
<feGaussianBlur stdDeviation="2"/>
<feComposite in2="hardAlpha" operator="out"/>
<feColorMatrix type="matrix" values="0 0 0 0 0 0 0 0 0 0 0 0 0 0 0 0 0 0 0.25 0"/>
<feBlend mode="normal" in2="BackgroundImageFix" result="effect1_dropShadow_14_3"/>
<feBlend mode="normal" in="SourceGraphic" in2="effect1_dropShadow_14_3" result="shape"/>
</filter>
</defs>
</svg>